<svg width="16" height="16" viewBox="0 0 16 16" fill="none" xmlns="http://www.w3.org/2000/svg">
<rect width="16" height="16" fill="white"/>
<g id="Frame" clip-path="url(#clip0_0_1)" filter="url(#filter0_d_0_1)">
<rect width="1732" height="4610" transform="translate(-321 -4407)" fill="black"/>
<g id="div.footer">
<path id="Rectangle" d="M-320.5 -168C-320.5 -174.351 -315.351 -179.5 -309 -179.5H1399C1405.35 -179.5 1410.5 -174.351 1410.5 -168V202.5H-320.5V-168Z" fill="#000508" stroke="#141414"/>
<g id="Frame_2">
<g id="Frame_3">
<g id="Frame_4">
<g id="Frame_5">
<rect id="Rectangle_2" x="-5" width="26" height="16" fill="#848895"/>
<g id="Frame_6">
<path id="Vector" d="M15.5333 4.86683C15.5333 4.7335 15.3333 3.66683 14.8666 3.20016C14.2666 2.5335 13.5999 2.46683 13.2666 2.46683H13.1999C11.1333 2.3335 8.06659 2.3335 7.99992 2.3335C7.99992 2.3335 4.86659 2.3335 2.79992 2.46683H2.73325C2.39992 2.46683 1.73325 2.5335 1.13325 3.20016C0.666585 3.7335 0.466585 4.80016 0.466585 4.9335C0.466585 5.00016 0.333252 6.20016 0.333252 7.46683V8.60016C0.333252 9.86683 0.466585 11.0668 0.466585 11.1335C0.466585 11.2668 0.666585 12.3335 1.13325 12.8002C1.66659 13.4002 2.33325 13.4668 2.73325 13.5335H2.93325C4.13325 13.6668 7.79992 13.6668 7.93325 13.6668C7.93325 13.6668 11.0666 13.6668 13.1333 13.5335H13.1999C13.5333 13.4668 14.1999 13.4002 14.7999 12.8002C15.2666 12.2668 15.4666 11.2002 15.4666 11.0668C15.4666 11.0002 15.5999 9.80016 15.5999 8.5335V7.40016C15.6666 6.20016 15.5333 4.9335 15.5333 4.86683ZM10.5999 8.1335L6.59992 10.2668C6.53325 10.2668 6.53325 10.3335 6.46659 10.3335C6.39992 10.3335 6.33325 10.3335 6.33325 10.2668C6.26659 10.2002 6.19992 10.1335 6.19992 10.0002V5.66683C6.19992 5.5335 6.26659 5.46683 6.33325 5.40016C6.39992 5.3335 6.53325 5.3335 6.66659 5.40016L10.6666 7.5335C10.7999 7.60016 10.8666 7.66683 10.8666 7.80016C10.8666 7.9335 10.7333 8.06683 10.5999 8.1335Z" fill="black"/>
</g>
</g>
</g>
</g>
</g>
</g>
</g>
<defs>
<filter id="filter0_d_0_1" x="-325" y="-4407" width="1740" height="4618" filterUnits="userSpaceOnUse" color-interpolation-filters="sRGB">
<feFlood flood-opacity="0" result="BackgroundImageFix"/>
<feColorMatrix in="SourceAlpha" type="matrix" values="0 0 0 0 0 0 0 0 0 0 0 0 0 0 0 0 0 0 127 0" result="hardAlpha"/>
<feOffset dy="4"/>
<feGaussianBlur stdDeviation="2"/>
<feComposite in2="hardAlpha" operator="out"/>
<feColorMatrix type="matrix" values="0 0 0 0 0 0 0 0 0 0 0 0 0 0 0 0 0 0 0.25 0"/>
<feBlend mode="normal" in2="BackgroundImageFix" result="effect1_dropShadow_0_1"/>
<feBlend mode="normal" in="SourceGraphic" in2="effect1_dropShadow_0_1" result="shape"/>
</filter>
<clipPath id="clip0_0_1">
<rect width="1732" height="4610" fill="white" transform="translate(-321 -4407)"/>
</clipPath>
</defs>
</svg>
