<svg width="16" height="16" viewBox="0 0 16 16" fill="none" xmlns="http://www.w3.org/2000/svg">
<rect width="16" height="16" fill="white"/>
<g id="Frame" clip-path="url(#clip0_0_1)" filter="url(#filter0_d_0_1)">
<rect width="1732" height="4610" transform="translate(-357 -4407)" fill="black"/>
<g id="div.footer">
<path id="Rectangle" d="M-356.5 -168C-356.5 -174.351 -351.351 -179.5 -345 -179.5H1363C1369.35 -179.5 1374.5 -174.351 1374.5 -168V202.5H-356.5V-168Z" fill="#000508" stroke="#141414"/>
<g id="Frame_2">
<g id="Frame_3">
<g id="Frame_4">
<g id="Frame_5">
<rect id="Rectangle_2" x="-5" width="26" height="16" fill="#848895"/>
<g id="Frame_6">
<path id="Vector" d="M14.9116 4.25151C14.3912 4.48253 13.8389 4.63389 13.2733 4.70053C13.8692 4.3443 14.3151 3.7833 14.5275 3.12234C13.9677 3.45479 13.3551 3.68902 12.7162 3.81492C12.4494 3.53016 12.1269 3.30326 11.7688 3.1483C11.4107 2.99333 11.0245 2.91361 10.6343 2.91406C9.0592 2.91406 7.78215 4.19112 7.78215 5.76648C7.78215 5.98972 7.80727 6.20731 7.85609 6.41644C5.48543 6.29734 3.38344 5.16196 1.97657 3.43617C1.72282 3.8715 1.58956 4.36654 1.59049 4.87043C1.59049 5.8599 2.09397 6.73309 2.85936 7.24448C2.40639 7.2301 1.96342 7.1077 1.56734 6.88747L1.56706 6.92359C1.56706 8.30535 2.55032 9.45794 3.85532 9.72041C3.43512 9.83416 2.99454 9.85076 2.56697 9.76895C2.93019 10.9021 3.98345 11.727 5.23143 11.7499C4.22113 12.5429 2.97338 12.9731 1.68898 12.971C1.45897 12.971 1.23178 12.9575 1.00854 12.931C2.31271 13.7692 3.83069 14.2141 5.38101 14.2125C10.6278 14.2125 13.4966 9.86632 13.4966 6.09696C13.4966 5.97335 13.494 5.85002 13.4887 5.72753C14.0472 5.3243 14.5291 4.82442 14.9116 4.25151Z" fill="black"/>
</g>
</g>
</g>
</g>
</g>
</g>
</g>
<defs>
<filter id="filter0_d_0_1" x="-361" y="-4407" width="1740" height="4618" filterUnits="userSpaceOnUse" color-interpolation-filters="sRGB">
<feFlood flood-opacity="0" result="BackgroundImageFix"/>
<feColorMatrix in="SourceAlpha" type="matrix" values="0 0 0 0 0 0 0 0 0 0 0 0 0 0 0 0 0 0 127 0" result="hardAlpha"/>
<feOffset dy="4"/>
<feGaussianBlur stdDeviation="2"/>
<feComposite in2="hardAlpha" operator="out"/>
<feColorMatrix type="matrix" values="0 0 0 0 0 0 0 0 0 0 0 0 0 0 0 0 0 0 0.25 0"/>
<feBlend mode="normal" in2="BackgroundImageFix" result="effect1_dropShadow_0_1"/>
<feBlend mode="normal" in="SourceGraphic" in2="effect1_dropShadow_0_1" result="shape"/>
</filter>
<clipPath id="clip0_0_1">
<rect width="1732" height="4610" fill="white" transform="translate(-357 -4407)"/>
</clipPath>
</defs>
</svg>
