<svg width="16" height="16" viewBox="0 0 16 16" fill="none" xmlns="http://www.w3.org/2000/svg">
<rect width="16" height="16" fill="white"/>
<g id="Frame" clip-path="url(#clip0_0_1)" filter="url(#filter0_d_0_1)">
<rect width="1732" height="4610" transform="translate(-501 -4407)" fill="black"/>
<g id="div.footer">
<path id="Rectangle" d="M-500.5 -168C-500.5 -174.351 -495.351 -179.5 -489 -179.5H1219C1225.35 -179.5 1230.5 -174.351 1230.5 -168V202.5H-500.5V-168Z" fill="#000508" stroke="#141414"/>
<g id="Frame_2">
<g id="Frame_3">
<g id="Frame_4">
<g id="Frame_5">
<rect x="-5" width="26" height="16" rx="8" fill="white"/>
<rect id="Rectangle_2" x="-5" width="26" height="16" fill="#848895"/>
<g id="Frame_6">
<path id="Vector" d="M15.1465 3.06965L12.9772 13.3C12.8136 14.022 12.3868 14.2016 11.7802 13.8616L8.47498 11.4259L6.88017 12.9598C6.7037 13.1363 6.55605 13.284 6.21592 13.284L6.45336 9.91765L12.5793 4.38211C12.8457 4.14468 12.5216 4.01308 12.1654 4.25055L4.59217 9.01912L1.33183 7.99868C0.622639 7.77724 0.609827 7.28946 1.47942 6.94933L14.232 2.03637C14.8224 1.81496 15.339 2.1679 15.1465 3.06965Z" fill="black"/>
</g>
</g>
</g>
</g>
</g>
</g>
</g>
<defs>
<filter id="filter0_d_0_1" x="-505" y="-4407" width="1740" height="4618" filterUnits="userSpaceOnUse" color-interpolation-filters="sRGB">
<feFlood flood-opacity="0" result="BackgroundImageFix"/>
<feColorMatrix in="SourceAlpha" type="matrix" values="0 0 0 0 0 0 0 0 0 0 0 0 0 0 0 0 0 0 127 0" result="hardAlpha"/>
<feOffset dy="4"/>
<feGaussianBlur stdDeviation="2"/>
<feComposite in2="hardAlpha" operator="out"/>
<feColorMatrix type="matrix" values="0 0 0 0 0 0 0 0 0 0 0 0 0 0 0 0 0 0 0.25 0"/>
<feBlend mode="normal" in2="BackgroundImageFix" result="effect1_dropShadow_0_1"/>
<feBlend mode="normal" in="SourceGraphic" in2="effect1_dropShadow_0_1" result="shape"/>
</filter>
<clipPath id="clip0_0_1">
<rect width="1732" height="4610" fill="white" transform="translate(-501 -4407)"/>
</clipPath>
</defs>
</svg>
